
        <svg xmlns="http://www.w3.org/2000/svg" xmlns:xlink="http://www.w3.org/1999/xlink" version="1.1" width="3216.411744177996" height="1111.570509401934" viewBox="0 0 3216.411744177996 1111.570509401934">
			
			<g transform="scale(10.820587208899797) translate(10, 10)">
				<defs id="SvgjsDefs1001"/><g id="SvgjsG1007" featureKey="symbolFeature-0" transform="matrix(1.109265857808172,0,0,1.109265857808172,-10.460274763451347,-14.09977936888952)" fill="#000"> <path xmlns="http://www.w3.org/2000/svg" d="m38.57 52.949c0.078126-0.98047 0.46875-1.8984 0.92969-2.7617l3.6914-6.8008c0.89062-1.6406 1.5898-3.3594 2.1094-5.1289 0.019531-0.078124-0.058593-0.14844-0.12891-0.10937-1.5781 0.87109-3.1289 1.8203-4.6016 2.8516l-10.949 7.6602c-0.21094 0.14844-0.32812 0.39062-0.32812 0.64062l0.23828 11.988c0.039062 1.8203 0.69141 3.6016 1.8398 5.0195 1.1914 1.4492 2.8203 2.0312 3.9805 2.2695 1.5898 0.32812 2.9805 1.1094 4.0391 2.2695 2.3398 2.6289 2.1289 6.6914-0.39844 9.1484l-0.17188 0.17188 0.78125-0.16016c4.0195-0.83984 6.8281-4.4883 6.6016-8.6016v-0.089844c-0.19922-3.3398-1.6406-6.4805-4.0312-8.8008l-0.85156-0.82812c-1.8398-1.7891-2.9102-4.2891-2.9297-6.8516-0.019531-0.625 0.058594-1.2578 0.17969-1.8867z"/> <path xmlns="http://www.w3.org/2000/svg" d="m55.039 42.141-0.23047-0.30859c-0.98828-1.3203-1.5312-2.9297-1.5195-4.5898v-2.9414c0-0.058593-0.058593-0.10156-0.12109-0.078125l-4.9805 2.3906c-0.019531 0.011719-0.039062 0.03125-0.039062 0.058594-0.55859 2.7109-1.5195 5.3711-2.8711 7.8594l-3.6211 6.6602c-0.21875 0.39844-0.37891 0.82031-0.51953 1.25l3.2695 1.75c1.3398 0.71875 3.0117 0.35938 3.9414-0.85156l0.67188-0.87891c0.078125-0.10938 0.089844-0.26172 0.019531-0.37891l-1.3008-2.25c-0.23047-0.39844-0.21094-0.89844 0.058594-1.2812 0.26953-0.37891 0.73047-0.57031 1.1914-0.46875l1.8984 0.37891c0.17188 0.03125 0.32812-0.058594 0.39062-0.21875 0.33984-0.94922 0.92188-2.1016 1.9297-3.1602 0.85938-0.91016 1.8086-1.5195 2.6602-1.9219-0.27734-0.33984-0.55859-0.67969-0.82813-1.0195z"/> <path xmlns="http://www.w3.org/2000/svg" d="m46.609 34.75 18.242-8.75c0.19922-0.10156 0.39063-0.21094 0.58984-0.30859l3.8398-2.2109c2.4883-1.4414 3.7188-4.4883 2.6484-7.1602-0.92188-2.3008-3.0898-3.6094-5.3203-3.6094-0.96875 0-1.9414 0.25-2.8398 0.76172l-1.8594 1.0703c-3.7617 2.1602-7.2188 4.7812-10.32 7.8086l-5.7305 5.6016c-3.3711 3.2891-7.5 5.6914-12.02 7l-8.75 2.5195c-4 1.1484-7.8516 2.7812-11.461 4.8594l-1.1289 0.64844c-1.1484 0.66016-2.1289 1.6484-2.6289 2.8789-0.69141 1.6797-0.55859 3.5 0.32812 5.0391 0.87891 1.5391 2.3984 2.5703 4.1992 2.8086 1.3203 0.17969 2.6484-0.17188 3.8086-0.82812l7.1914-4.1406 13.828-9.6719c2.332-1.6367 4.8047-3.0781 7.3828-4.3164z"/> <path xmlns="http://www.w3.org/2000/svg" d="m33.18 32.672c4.1484-1.1914 7.9297-3.3984 11.02-6.4219l5.7109-5.5781c0.25-0.25 0.51953-0.46875 0.78125-0.71875-4.3789-6.6289-13.25-8.8203-20.219-4.8008-7.0195 4.0391-9.5703 12.871-5.9492 20.012z"/> <path xmlns="http://www.w3.org/2000/svg" d="m67.648 81.031c0.03125 0.011719 0.050781 0.019531 0.070312 0.03125 0.80859-0.71875 1.8594-1.1719 3.0195-1.1719 1.1602 0 2.2188 0.44922 3.0195 1.1719 0.019532-0.011719 0.039063-0.019531 0.070313-0.03125l2.9805-0.76953-4.5703-6.3711c-0.26172-0.35938-0.28906-0.82812-0.10156-1.2188 0.19922-0.39062 0.58984-0.64844 1.0312-0.66016 1.3906-0.03125 2.6094-0.96875 2.8984-2.2188 0.23047-1.0195-0.14844-2.1484-0.91016-2.6992-0.48828-0.35156-1.1992-0.48828-1.9219-0.37109-0.98047 0.16016-1.8984 0.76172-2.5312 1.6406-0.30859 0.44141-0.87891 0.60938-1.3789 0.42188-0.5-0.19141-0.80859-0.69922-0.76172-1.2305 0.16016-1.5508 0.48828-3.0781 0.96094-4.5508 0.32031-1 0.71875-1.9883 1.1797-2.9414 0.73828-1.5195 0.53125-3.3906-0.53906-4.7695-0.91016-1.1719-2.0117-2.0781-3.3086-2.7617-0.14062-0.070312-0.26953-0.17188-0.39844-0.25l-8.8594 6.5391c-0.089844 0.070313-0.089844 0.21094 0 0.28125l1.7695 1.2383c0.80859 0.55859 1.1406 1.6016 0.82031 2.5312l-0.28906 0.82812c0.039062 0.32031 0.078124 0.57812 0.12891 0.89844l1.1211 1.6094c0.25 0.35938 0.28125 0.82812 0.078124 1.2305-0.19922 0.39062-0.60937 0.64062-1.0508 0.64062h-1.6016c-0.14844 0-0.26953 0.12109-0.28125 0.26953l-0.10938 2.1484c-0.011719 0.26172 0.10156 0.51172 0.30078 0.67188l4.5156 3.5703c0.67969 0.53906 1.0703 1.3594 1.0703 2.2188v3.1484z"/> <path xmlns="http://www.w3.org/2000/svg" d="m60.52 81.641v5.6484l5.6602-1.4609v-2.7266z"/> <path xmlns="http://www.w3.org/2000/svg" d="m75.32 85.828 5.6602 1.4609v-5.6484l-5.6602 1.4609z"/> <path xmlns="http://www.w3.org/2000/svg" d="m76.789 45.16c-2.9414-0.48047-5.2695-2.9688-5.5508-6.0312-0.17188-1.8906 0.44922-3.6914 1.6211-5.0508-2.8984 0.14062-5.6016 1.5703-7.2305 3.9609-2 2.9219-2.0703 6.8711-0.19141 10.059 0.57031 0.96094 1.4492 1.7695 2.5391 2.3398 1.6016 0.82812 2.9609 1.9688 4.0508 3.3594 1.6602 2.1289 1.9688 4.9805 0.83984 7.3086-0.41016 0.85156-0.76953 1.7383-1.0586 2.6289-0.10938 0.35156-0.21875 0.71094-0.30859 1.0703 0.44922-0.19141 0.91016-0.32813 1.3789-0.41016 1.3594-0.23047 2.6719 0.058594 3.6914 0.78906 1.5195 1.1016 2.2695 3.2109 1.8281 5.1484-0.39844 1.668-1.5977 3.0078-3.1797 3.6484l3.4414 4.8008c8.0117-3.1484 13-11.34 11.699-19.398-1.0898-6.832-6.4297-12.414-13.57-14.223z"/> <path xmlns="http://www.w3.org/2000/svg" d="m70.75 82.262c-1.2188 0-2.2109 0.98828-2.2109 2.2109 0 1.2188 0.98828 2.1992 2.2109 2.1992 1.2188 0 2.2109-0.98828 2.2109-2.1992-0.011719-1.2227-1-2.2109-2.2109-2.2109z"/></g><g id="SvgjsG1008" featureKey="nameLeftFeature-0" transform="matrix(1.9124999999999999,0,0,1.9124999999999999,106.17500091195106,-4.299999999999999)" fill="#000"><path d="M2 40 l0 -32 l8.4 0 l0 3.2 l-4.4 0 l0 12 l3.6 0 l0 3.2 l-3.6 0 l0 13.6 l-4 0 z M13.200000000000001 40 l0 -32 l4 0 l0 32 l-4 0 z M19.6 11.600000000000001 l0 -3.6 l12 0 l0 3.6 l-4 0 l0 28.4 l-4 0 l0 -28.4 l-4 0 z"/></g><g id="SvgjsG1009" featureKey="nameRightFeature-0" transform="matrix(1.865853484934971,0,0,1.865853484934971,166.26829391983833,-3.180485417855852)" fill="#000"><path d="M2 40 l0 -32 l8.4 0 l0 3.2 l-4.4 0 l0 12 l3.6 0 l0 3.2 l-3.6 0 l0 13.6 l-4 0 z M13.200000000000001 40 l0 -32 l4 0 l0 28 l5.2 0 l0 4 l-9.2 0 z M24.400000000000002 23.16 c0 -11.16 0.24 -15.56 6.24 -15.56 s6.24 4.4 6.24 15.56 c0 12.8 -0.24 17.24 -6.24 17.24 s-6.24 -4.44 -6.24 -17.24 z M28.4 23.16 c0 11.56 0 13.24 2.24 13.24 s2.24 -1.68 2.24 -13.24 c0 -10.4 0 -12.36 -2.24 -12.36 s-2.24 1.96 -2.24 12.36 z M39.68000000000001 8 l4.2 0 l1.2 24.08 l0.4 0 l2.4 -24.08 l3.4 0 l2.4 24.08 l0.4 0 l1.2 -24.08 l4.2 0 l-2.8 32 l-4.8 0 l-2.28 -16.72 l-2.32 16.72 l-4.8 0 z"/></g>
			</g>
		</svg>
	